<?xml version="1.0" encoding="utf-8"?><svg viewBox="0 0 22 20.031" xmlns="http://www.w3.org/2000/svg" xmlns:xlink="http://www.w3.org/1999/xlink"><style>:root>svg{display:none}:root>svg:target{display:block}</style><svg viewBox="0 0 15 11" id="arrow-right" xmlns="http://www.w3.org/2000/svg"><path d="M8.931 11.01a.673.673 0 00.425-.16l5.434-4.92c.007 0 .013-.01.019-.01l.031-.03v-.01a.567.567 0 00.138-.47.6.6 0 00-.155-.31l-.033-.03L9.355.16a.65.65 0 00-.874.02.578.578 0 00.024.84l4.311 3.89H.631a.608.608 0 00-.617.59.6.6 0 00.617.59h12.186l-4.311 3.9a.566.566 0 00-.024.83.608.608 0 00.449.19z"/></svg><svg viewBox="0 0 19 17" id="cart-icon" xmlns="http://www.w3.org/2000/svg"><path fill-rule="evenodd" fill="#243F4D" d="M18.936 3.932l-2.123 7.956a.594.594 0 01-.573.44H5.885a.044.044 0 00-.023 0c-1.329.001-2.205.493-2.68 1.509a.593.593 0 01-1.073-.502c.579-1.239 1.627-1.973 3.054-2.151L4.108 5.793a.592.592 0 111.163-.227l1.091 5.578h9.423l1.807-6.771H4.29A4.354 4.354 0 01.007.68.591.591 0 111.178.505a3.165 3.165 0 003.115 2.682h14.07a.593.593 0 01.573.745zM5.527 12.831h.006A2.065 2.065 0 017.602 14.9a2.066 2.066 0 01-1.277 1.917 2.067 2.067 0 01-2.26-.446 2.066 2.066 0 01-.453-2.26 2.068 2.068 0 011.915-1.28zm-.626 2.702a.89.89 0 10.632-1.518h-.004a.887.887 0 00-.628 1.518zm9.017-2.702c.546-.04 1.08.218 1.468.603.392.393.607.912.607 1.466a2.065 2.065 0 01-1.274 1.917 2.064 2.064 0 01-2.262-.446 2.065 2.065 0 01-.452-2.26 2.064 2.064 0 011.913-1.28zm-.625 2.702a.889.889 0 10.631-1.518h-.001c-.331.032-.685.215-.823.548a.885.885 0 00.193.97z"/></svg><svg viewBox="0 0 22 20" id="cart-icon-prod" xmlns="http://www.w3.org/2000/svg"><defs><style>.ccls-1{fill:#fff;fill-rule:evenodd}</style></defs><path id="cForma_1" data-name="Forma 1" class="ccls-1" d="M800.814 1564.63h2.333l3.323 12.04a.812.812 0 00.787.59h10.214a.821.821 0 00.746-.48l3.717-8.56a.836.836 0 00-.068-.78.813.813 0 00-.678-.37H809.9a.82.82 0 000 1.64h10.04l-3.011 6.92h-9.062l-3.323-12.03a.808.808 0 00-.787-.6h-2.943a.815.815 0 000 1.63zm5.67 18.37a1.85 1.85 0 10-1.845-1.85 1.85 1.85 0 001.845 1.85zm11.53 0h.135a1.907 1.907 0 10-.135 0z" transform="translate(-800 -1563)"/></svg><svg viewBox="0 0 19 17" id="like-icon" xmlns="http://www.w3.org/2000/svg"><path fill-rule="evenodd" fill="#243F4D" d="M9.913 16.244a.714.714 0 01-.28-.056C9.28 16.039.983 12.439.983 5.429 1.074 2.779 3.19.721 5.801.721c1.743 0 3.266.918 4.112 2.31a4.796 4.796 0 014.112-2.31c2.609 0 4.725 2.058 4.817 4.684 0 7.034-8.297 10.634-8.649 10.783a.718.718 0 01-.28.056zM5.801 2.106c-1.847 0-3.343 1.47-3.408 3.346 0 5.408 6.125 8.663 7.52 9.335 1.395-.672 7.52-3.93 7.52-9.358-.065-1.853-1.563-3.323-3.408-3.323s-3.342 1.47-3.408 3.346a.698.698 0 01-.704.669.7.7 0 01-.705-.669c-.064-1.876-1.561-3.346-3.407-3.346z"/></svg><svg viewBox="0 0 22 18" id="like-icon-prod" xmlns="http://www.w3.org/2000/svg"><defs><style>.ecls-1{fill:#a3bbc8;fill-rule:evenodd}</style></defs><path id="eForma_1" data-name="Forma 1" class="ecls-1" d="M882.99 1569.82a6.208 6.208 0 00-1.849-4.1A5.871 5.871 0 00877 1564c-2.311 0-3.948 1.78-4.827 2.74a2.156 2.156 0 01-.156.17l-.083-.09c-.8-.92-2.476-2.82-4.938-2.82a5.873 5.873 0 00-4.139 1.72 6.208 6.208 0 00-1.849 4.1 6.845 6.845 0 001.271 4.34 29.307 29.307 0 004.763 4.75c1.705 1.41 3.95 3.09 4.965 3.09 1.032 0 3.269-1.68 4.965-3.09a29.234 29.234 0 004.746-4.75 6.935 6.935 0 001.272-4.34zm-2.376 3.61a27 27 0 01-4.431 4.42c-2.406 2-3.831 2.79-4.172 2.82-.342-.03-1.77-.83-4.188-2.84a26.78 26.78 0 01-4.437-4.4 5.6 5.6 0 01-1.054-3.54 4.807 4.807 0 014.666-4.57c1.863 0 3.216 1.54 3.943 2.37a1.52 1.52 0 001.059.76 1.731 1.731 0 001.151-.81c.794-.87 2.122-2.32 3.851-2.32a4.807 4.807 0 014.666 4.57 5.528 5.528 0 01-1.054 3.54z" transform="translate(-861 -1564)"/></svg><svg viewBox="0 0 20.03 20.031" id="menu-icon" xmlns="http://www.w3.org/2000/svg"><defs><style>.fcls-1{fill:#fff;fill-rule:evenodd}</style></defs><path class="fcls-1" d="M2.15 4.287a2.146 2.146 0 112.14-2.145 2.145 2.145 0 01-2.14 2.145zm0 7.869a2.146 2.146 0 112.14-2.147 2.146 2.146 0 01-2.14 2.147zm0 7.868a2.146 2.146 0 112.14-2.146 2.145 2.145 0 01-2.14 2.146zm7.86-15.737a2.146 2.146 0 112.15-2.145 2.143 2.143 0 01-2.15 2.145zm0 7.869a2.146 2.146 0 112.15-2.147 2.144 2.144 0 01-2.15 2.147zm0 7.868a2.146 2.146 0 112.15-2.146 2.143 2.143 0 01-2.15 2.146zm7.87-15.737a2.146 2.146 0 112.15-2.145 2.143 2.143 0 01-2.15 2.145zm0 7.869a2.146 2.146 0 112.15-2.147 2.144 2.144 0 01-2.15 2.147zm0 7.868a2.146 2.146 0 112.15-2.146 2.143 2.143 0 01-2.15 2.146z"/></svg><svg viewBox="0 0 15.28 15.281" id="search-icon" xmlns="http://www.w3.org/2000/svg"><defs><style>.gcls-1{fill:#243f4d;fill-rule:evenodd}</style></defs><path id="gicon" class="gcls-1" d="M1547.7 72.076a.617.617 0 01.75.485 2.583 2.583 0 00.78 1.489 3.036 3.036 0 001.49.777.636.636 0 01.49.743.649.649 0 01-.72.515 4.21 4.21 0 01-2.14-1.13 4.164 4.164 0 01-1.13-2.136.6.6 0 01.48-.743zm3.28-6.076a6.267 6.267 0 016.28 6.257 6.136 6.136 0 01-.57 2.6l2.34 2.036c1.7 1.746.74 3.266.29 3.717-.42.454-1.99 1.414-3.73-.292l-2.06-2.35A6.261 6.261 0 111550.98 66zm5.55 13.517a1.352 1.352 0 001.88.226 1.313 1.313 0 00-.23-1.874l-2.16-1.88a6.236 6.236 0 01-1.37 1.34zm-5.55-2.312a4.948 4.948 0 10-4.97-4.948 4.963 4.963 0 004.97 4.943z" transform="translate(-1544.72 -66)"/></svg></svg>