<svg width="0" height="0" class="hidden">
    <symbol xmlns="http://www.w3.org/2000/svg" viewBox="0 0 17.87 15.531" id="header-like" width="19px" height="18px">
        <path fill-rule="evenodd" fill="#243f4d" d="M9.913,16.244 C9.818,16.244 9.722,16.226 9.633,16.188 C9.280,16.039 0.983,12.439 0.983,5.429 C1.074,2.779 3.190,0.721 5.801,0.721 C7.544,0.721 9.067,1.639 9.913,3.031 C10.760,1.639 12.282,0.721 14.025,0.721 C16.634,0.721 18.750,2.779 18.842,5.405 C18.842,12.439 10.545,16.039 10.193,16.188 C10.103,16.226 10.008,16.244 9.913,16.244 ZM5.801,2.106 C3.954,2.106 2.458,3.576 2.393,5.452 C2.393,10.860 8.518,14.115 9.913,14.787 C11.308,14.115 17.433,10.857 17.433,5.429 C17.368,3.576 15.870,2.106 14.025,2.106 C12.180,2.106 10.683,3.576 10.617,5.452 C10.605,5.825 10.293,6.121 9.913,6.121 L9.913,6.121 C9.533,6.121 9.221,5.825 9.208,5.452 C9.144,3.576 7.647,2.106 5.801,2.106 Z"/>
    </symbol>
    <symbol xmlns="http://www.w3.org/2000/svg" viewBox="0 0 20.03 20.031" id="header-menu">
        <path d="M2.15 4.287a2.146 2.146 0 112.14-2.145 2.145 2.145 0 01-2.14 2.145zm0 7.869a2.146 2.146 0 112.14-2.147 2.146 2.146 0 01-2.14 2.147zm0 7.868a2.146 2.146 0 112.14-2.146 2.145 2.145 0 01-2.14 2.146zm7.86-15.737a2.146 2.146 0 112.15-2.145 2.143 2.143 0 01-2.15 2.145zm0 7.869a2.146 2.146 0 112.15-2.147 2.144 2.144 0 01-2.15 2.147zm0 7.868a2.146 2.146 0 112.15-2.146 2.143 2.143 0 01-2.15 2.146zm7.87-15.737a2.146 2.146 0 112.15-2.145 2.143 2.143 0 01-2.15 2.145zm0 7.869a2.146 2.146 0 112.15-2.147 2.144 2.144 0 01-2.15 2.147zm0 7.868a2.146 2.146 0 112.15-2.146 2.143 2.143 0 01-2.15 2.146z" fill="#fff" fill-rule="evenodd"></path>
    </symbol>
    <symbol xmlns="http://www.w3.org/2000/svg" viewBox="0 0 15.28 15.281" id="header-search">
        <path d="M2.98 6.076a.617.617 0 01.75.485 2.583 2.583 0 00.78 1.489A3.036 3.036 0 006 8.827a.636.636 0 01.49.743.649.649 0 01-.72.515 4.21 4.21 0 01-2.14-1.13A4.164 4.164 0 012.5 6.819a.6.6 0 01.48-.743zM6.26 0a6.267 6.267 0 016.28 6.257 6.136 6.136 0 01-.57 2.6l2.34 2.036c1.7 1.746.74 3.266.29 3.717-.42.454-1.99 1.414-3.73-.292l-2.06-2.35A6.261 6.261 0 116.26 0zm5.55 13.517a1.352 1.352 0 001.88.226 1.313 1.313 0 00-.23-1.874l-2.16-1.88a6.236 6.236 0 01-1.37 1.34zm-5.55-2.312a4.948 4.948 0 10-4.97-4.948A4.963 4.963 0 006.26 11.2z" fill-rule="evenodd" fill="#243f4d"></path>
    </symbol>
    <symbol xmlns="http://www.w3.org/2000/svg" viewBox="0 0 18.94 16.969" id="header-cart">
        <path d="M5.53 16.978a2.074 2.074 0 110-4.147 2.056 2.056 0 011.46.6 2.03 2.03 0 01.61 1.466 2.071 2.071 0 01-2.07 2.081zm0-2.963a.889.889 0 10.34 1.71.9.9 0 00.55-.824.92.92 0 00-.26-.629.9.9 0 00-.63-.257zm8.39 2.963a2.045 2.045 0 01-1.46-.607 2.068 2.068 0 011.46-3.54 1.953 1.953 0 011.47.6 2.085 2.085 0 01-.67 3.383 2.093 2.093 0 01-.8.164zm0-2.963a.978.978 0 00-.82.548.887.887 0 001.16 1.161.891.891 0 00.29-1.452.9.9 0 00-.63-.257zm-11.27.164a.562.562 0 01-.25-.056.59.59 0 01-.29-.787 3.686 3.686 0 013.05-2.151L4.11 5.794a.591.591 0 111.16-.228l1.09 5.578h9.43l1.8-6.771H4.29A4.346 4.346 0 01.01.68.587.587 0 01.5.007a.6.6 0 01.68.5 3.159 3.159 0 003.11 2.682h14.07a.582.582 0 01.47.232.594.594 0 01.11.513l-2.13 7.956a.59.59 0 01-.57.44H5.88a.03.03 0 00-.02 0 2.66 2.66 0 00-2.68 1.51.586.586 0 01-.53.338z" fill-rule="evenodd"></path>
    </symbol>
    <symbol xmlns="http://www.w3.org/2000/svg" id="product-cart">
        <path fill-rule="evenodd" d="M21.934,5.216 L18.217,13.776 C18.082,14.075 17.797,14.264 17.471,14.264 L7.257,14.264 C6.891,14.264 6.565,14.020 6.470,13.667 L3.147,1.629 L0.814,1.629 C0.366,1.629 -0.000,1.262 -0.000,0.814 C-0.000,0.365 0.366,-0.002 0.814,-0.002 L3.757,-0.002 C4.124,-0.002 4.449,0.243 4.544,0.596 L7.867,12.634 L16.929,12.634 L19.940,5.705 L9.902,5.705 C9.454,5.705 9.088,5.338 9.088,4.889 C9.088,4.440 9.454,4.074 9.902,4.074 L21.188,4.074 C21.459,4.074 21.717,4.211 21.866,4.440 C22.015,4.673 22.043,4.957 21.934,5.216 ZM6.484,16.303 C7.501,16.303 8.329,17.131 8.329,18.150 C8.329,19.169 7.501,19.999 6.484,19.999 C5.466,19.999 4.639,19.169 4.639,18.150 C4.639,17.131 5.466,16.303 6.484,16.303 ZM17.892,16.303 C18.909,16.235 19.791,17.009 19.859,18.015 C19.886,18.517 19.737,18.994 19.411,19.360 C19.085,19.740 18.638,19.958 18.149,19.999 C18.109,19.999 18.055,19.999 18.014,19.999 C17.051,19.999 16.250,19.238 16.183,18.273 C16.115,17.267 16.874,16.371 17.892,16.303 Z"/>
    </symbol>
    <symbol xmlns="http://www.w3.org/2000/svg" width="22px" height="18px" id="product-like">
        <path fill-rule="evenodd" d="M21.990,5.820 C21.907,4.269 21.250,2.813 20.141,1.720 C19.016,0.610 17.545,-0.001 16.002,-0.001 C13.691,-0.001 12.054,1.784 11.175,2.744 C11.125,2.798 11.071,2.857 11.019,2.913 C10.991,2.882 10.963,2.849 10.936,2.819 C10.132,1.903 8.460,-0.001 5.998,-0.001 C4.455,-0.001 2.985,0.610 1.859,1.720 C0.750,2.813 0.093,4.269 0.010,5.820 C-0.072,7.361 0.320,8.700 1.281,10.158 C2.142,11.466 4.385,13.532 6.044,14.906 C7.749,16.317 9.994,17.999 11.009,17.999 C12.041,17.999 14.278,16.319 15.974,14.912 C17.620,13.545 19.850,11.480 20.720,10.158 C21.366,9.174 22.095,7.792 21.990,5.820 ZM19.614,9.430 C18.982,10.391 17.202,12.166 15.183,13.848 C12.777,15.852 11.352,16.643 11.011,16.674 C10.669,16.639 9.241,15.841 6.823,13.831 C4.793,12.145 3.010,10.377 2.386,9.429 C1.591,8.223 1.266,7.132 1.332,5.891 C1.467,3.372 3.560,1.322 5.998,1.322 C7.861,1.322 9.214,2.864 9.941,3.692 C10.369,4.180 10.604,4.447 11.000,4.447 C11.409,4.447 11.672,4.161 12.151,3.638 C12.945,2.772 14.273,1.322 16.002,1.322 C18.440,1.322 20.533,3.372 20.668,5.891 C20.735,7.145 20.420,8.204 19.614,9.430 Z"/>
    </symbol>

    <symbol xmlns="http://www.w3.org/2000/svg" viewBox="0 0 15.28 15.281" id="product-search">
        <path d="M2.98 6.076a.617.617 0 01.75.485 2.583 2.583 0 00.78 1.489A3.036 3.036 0 006 8.827a.636.636 0 01.49.743.649.649 0 01-.72.515 4.21 4.21 0 01-2.14-1.13A4.164 4.164 0 012.5 6.819a.6.6 0 01.48-.743zM6.26 0a6.267 6.267 0 016.28 6.257 6.136 6.136 0 01-.57 2.6l2.34 2.036c1.7 1.746.74 3.266.29 3.717-.42.454-1.99 1.414-3.73-.292l-2.06-2.35A6.261 6.261 0 116.26 0zm5.55 13.517a1.352 1.352 0 001.88.226 1.313 1.313 0 00-.23-1.874l-2.16-1.88a6.236 6.236 0 01-1.37 1.34zm-5.55-2.312a4.948 4.948 0 10-4.97-4.948A4.963 4.963 0 006.26 11.2z" fill-rule="evenodd"></path>
    </symbol>
</svg>

